<?xml version="1.0" encoding="UTF-8" standalone="no"?>
<!-- Created with Inkscape (http://www.inkscape.org/) -->
<svg
   xmlns:dc="http://purl.org/dc/elements/1.1/"
   xmlns:cc="http://creativecommons.org/ns#"
   xmlns:rdf="http://www.w3.org/1999/02/22-rdf-syntax-ns#"
   xmlns:svg="http://www.w3.org/2000/svg"
   xmlns="http://www.w3.org/2000/svg"
   xmlns:sodipodi="http://sodipodi.sourceforge.net/DTD/sodipodi-0.dtd"
   xmlns:inkscape="http://www.inkscape.org/namespaces/inkscape"
   version="1.0"
   width="425.0675"
   height="56.760002"
   id="svg2"
   sodipodi:version="0.32"
   inkscape:version="0.46"
   sodipodi:docname="lombokText.svg"
   inkscape:output_extension="org.inkscape.output.svg.inkscape">
  <metadata
     id="metadata2527">
    <rdf:RDF>
      <cc:Work
         rdf:about="">
        <dc:format>image/svg+xml</dc:format>
        <dc:type
           rdf:resource="http://purl.org/dc/dcmitype/StillImage" />
      </cc:Work>
    </rdf:RDF>
  </metadata>
  <sodipodi:namedview
     inkscape:window-height="713"
     inkscape:window-width="640"
     inkscape:pageshadow="2"
     inkscape:pageopacity="0.0"
     guidetolerance="10.0"
     gridtolerance="10.0"
     objecttolerance="10.0"
     borderopacity="1.0"
     bordercolor="#666666"
     pagecolor="#ffffff"
     id="base"
     showgrid="false"
     inkscape:zoom="1"
     inkscape:cx="194.15432"
     inkscape:cy="205"
     inkscape:window-x="365"
     inkscape:window-y="58"
     inkscape:current-layer="svg2" />
  <defs
     id="defs4">
    <inkscape:perspective
       sodipodi:type="inkscape:persp3d"
       inkscape:vp_x="0 : 100 : 1"
       inkscape:vp_y="0 : 1000 : 0"
       inkscape:vp_z="500 : 100 : 1"
       inkscape:persp3d-origin="250 : 66.666667 : 1"
       id="perspective2529" />
  </defs>
  <g
     id="layer1"
     transform="translate(-31.89625,-66.299366)">
    <path
       d="M 31.89625,123.05937 L 31.89625,66.299366 L 41.35625,66.299366 L 41.35625,115.13937 L 84.36625,115.13937 L 84.36625,123.05937 L 31.89625,123.05937 M 98.808906,87.529366 C 98.808897,83.276072 99.615562,80.379409 101.22891,78.839366 C 102.84223,77.226078 105.84889,76.419413 110.24891,76.419366 L 143.90891,76.419366 C 148.30885,76.419413 151.31551,77.226078 152.92891,78.839366 C 154.54217,80.379409 155.34884,83.276072 155.34891,87.529366 L 155.34891,112.05937 C 155.34884,116.31271 154.54217,119.20937 152.92891,120.74937 C 151.31551,122.28937 148.30885,123.05937 143.90891,123.05937 L 110.24891,123.05937 C 105.77556,123.05937 102.73223,122.32603 101.11891,120.85937 C 99.578896,119.31937 98.808897,116.38604 98.808906,112.05937 L 98.808906,87.529366 M 107.60891,116.01937 L 146.54891,116.01937 L 146.54891,83.349366 L 107.60891,83.349366 L 107.60891,116.01937 M 182.78875,85.109366 L 183.00875,91.599366 L 183.00875,123.05937 L 175.74875,123.05937 L 175.74875,76.419366 L 183.00875,76.419366 L 206.21875,106.66937 L 227.55875,76.419366 L 235.69875,76.419366 L 235.69875,123.05937 L 227.55875,123.05937 L 227.55875,91.599366 C 227.55869,89.326066 227.74202,87.162735 228.10875,85.109366 C 227.08202,88.042734 226.05536,90.206065 225.02875,91.599366 L 207.09875,115.68937 L 204.78875,115.68937 L 186.19875,91.819366 C 184.8054,90.059399 183.66873,87.822734 182.78875,85.109366 M 257.38937,123.05937 L 257.38937,76.419366 L 296.76938,76.419366 C 303.58932,76.419413 306.99931,79.462743 306.99937,85.549366 L 306.99937,90.939366 C 306.99931,95.632727 304.28598,98.309391 298.85938,98.969366 C 304.50598,99.556056 307.32931,102.56272 307.32938,107.98937 L 307.32938,113.92937 C 307.32931,120.01604 302.81932,123.05937 293.79937,123.05937 L 257.38937,123.05937 M 298.19938,91.489366 L 298.19938,87.089366 C 298.19932,84.522738 296.54933,83.239406 293.24937,83.239366 L 266.18937,83.239366 L 266.18937,95.229366 L 293.24937,95.229366 C 295.08266,95.229394 296.36599,95.009394 297.09938,94.569366 C 297.83266,94.056062 298.19932,93.029396 298.19938,91.489366 M 266.18937,102.04937 L 266.18937,116.23937 L 293.24937,116.23937 C 295.22933,116.23937 296.58599,115.87271 297.31937,115.13937 C 298.12599,114.33271 298.52932,112.93938 298.52938,110.95937 L 298.52938,107.32937 C 298.52932,103.80939 296.76932,102.04939 293.24937,102.04937 L 266.18937,102.04937 M 325.68391,87.529366 C 325.6839,83.276072 326.49056,80.379409 328.10391,78.839366 C 329.71723,77.226078 332.72389,76.419413 337.12391,76.419366 L 370.78391,76.419366 C 375.18385,76.419413 378.19051,77.226078 379.80391,78.839366 C 381.41717,80.379409 382.22384,83.276072 382.22391,87.529366 L 382.22391,112.05937 C 382.22384,116.31271 381.41717,119.20937 379.80391,120.74937 C 378.19051,122.28937 375.18385,123.05937 370.78391,123.05937 L 337.12391,123.05937 C 332.65056,123.05937 329.60723,122.32603 327.99391,120.85937 C 326.4539,119.31937 325.6839,116.38604 325.68391,112.05937 L 325.68391,87.529366 M 334.48391,116.01937 L 373.42391,116.01937 L 373.42391,83.349366 L 334.48391,83.349366 L 334.48391,116.01937 M 402.62375,123.05937 L 402.62375,76.419366 L 411.42375,76.419366 L 411.42375,96.439366 L 440.90375,76.419366 L 453.11375,76.419366 L 418.68375,98.969366 L 456.96375,123.05937 L 442.55375,123.05937 L 411.42375,102.15937 L 411.42375,123.05937 L 402.62375,123.05937"
       id="flowRoot2383"
       style="font-size:110px;font-style:normal;font-variant:normal;font-weight:normal;font-stretch:normal;fill:#000000;fill-opacity:1;stroke:none;stroke-width:1px;stroke-linecap:butt;stroke-linejoin:miter;stroke-opacity:1;font-family:Bank Gothic;-inkscape-font-specification:Bank Gothic" />
  </g>
</svg>
